<svg xmlns="http://www.w3.org/2000/svg" width="112" height="112" viewBox="0 0 112 112"><defs><mask id="haomb" width="2.06" height="2.06" x="-1.03" y="-1.03"><path fill="#fff" d="M0 0h112v112H0z"/><path d="M56 3c29.271 0 53 23.728 53 53 0 29.27-23.729 53-53 53S3 85.27 3 56C3 26.727 26.729 3 56 3z"/></mask><filter id="haoma" width="132" height="132" x="-10" y="-10" filterUnits="userSpaceOnUse"><feOffset in="SourceGraphic" result="FeOffset1095Out"/><feGaussianBlur in="FeOffset1095Out" result="FeGaussianBlur1096Out" stdDeviation="0 0"/></filter><clipPath id="haomc"><path fill="#fff" d="M56 3c29.271 0 53 23.728 53 53 0 29.27-23.729 53-53 53S3 85.27 3 56C3 26.727 26.729 3 56 3z"/></clipPath></defs><g><g><g filter="url(#haoma)"><path fill="none" stroke="#38c695" stroke-width="6" d="M56 3c29.271 0 53 23.728 53 53 0 29.27-23.729 53-53 53S3 85.27 3 56C3 26.727 26.729 3 56 3z" mask="url(&quot;#haomb&quot;)"/><path fill="#38c695" d="M56 3c29.271 0 53 23.728 53 53 0 29.27-23.729 53-53 53S3 85.27 3 56C3 26.727 26.729 3 56 3z"/></g><path fill="#feb960" d="M56 3c29.271 0 53 23.728 53 53 0 29.27-23.729 53-53 53S3 85.27 3 56C3 26.727 26.729 3 56 3z"/><path fill="#38c695" d="M56 3c29.271 0 53 23.728 53 53 0 29.27-23.729 53-53 53S3 85.27 3 56C3 26.727 26.729 3 56 3z"/><path fill="none" stroke="#fff" stroke-linecap="round" stroke-linejoin="round" stroke-miterlimit="20" stroke-width="6" d="M56 3c29.271 0 53 23.728 53 53 0 29.27-23.729 53-53 53S3 85.27 3 56C3 26.727 26.729 3 56 3z" clip-path="url(&quot;#haomc&quot;)"/></g><g><g><text dominant-baseline="text-before-edge" style="line-height:20px" fill="#fff" font-family="'Poppins','Poppins-Regular'" font-size="13" font-style="none" font-weight="400" transform="translate(24 36)"><tspan style="font-kerning:normal" font-size="25">$</tspan><tspan style="font-kerning:normal" font-size="25">125 </tspan><tspan style="font-kerning:normal">Per Month</tspan></text></g></g></g></svg>